<?xml version="1.0" standalone="no"?>
<!DOCTYPE svg PUBLIC "-//W3C//DTD SVG 20010904//EN"
 "http://www.w3.org/TR/2001/REC-SVG-20010904/DTD/svg10.dtd">
<svg version="1.0" xmlns="http://www.w3.org/2000/svg"
 width="512.000000pt" height="512.000000pt" viewBox="0 0 512.000000 512.000000"
 preserveAspectRatio="xMidYMid meet">

<g transform="translate(0.000000,512.000000) scale(0.100000,-0.100000)"
fill="#000000" stroke="none">
<path d="M880 5105 c-456 -80 -801 -434 -869 -892 -15 -100 -15 -3206 0 -3306
70 -467 429 -826 896 -896 100 -15 3206 -15 3306 0 467 70 826 429 896 896 15
100 15 3206 0 3306 -70 467 -429 826 -896 896 -114 17 -3235 13 -3333 -4z
m870 -1259 c98 -18 216 -65 301 -122 59 -39 219 -194 219 -212 0 -4 -29 -18
-65 -30 -133 -48 -313 -175 -418 -294 -75 -86 -160 -223 -197 -319 -35 -92
-70 -229 -70 -277 0 -25 -7 -39 -27 -55 -16 -12 -69 -63 -120 -114 l-91 -92
-69 37 c-91 49 -236 193 -291 288 -88 151 -127 346 -104 509 66 456 484 761
932 681z m1002 -600 c291 -56 527 -262 614 -536 22 -69 32 -88 44 -84 8 3 44
12 80 20 364 78 720 -212 720 -586 0 -276 -205 -528 -475 -585 -59 -12 -216
-15 -961 -15 -565 0 -911 4 -945 10 -238 45 -401 278 -361 513 29 168 147 302
314 356 l36 12 -5 74 c-7 91 10 204 46 307 129 363 517 586 893 514z"/>
</g>
</svg>
